<svg width="16" height="17" viewBox="0 0 16 17" fill="none" xmlns="http://www.w3.org/2000/svg">
<path fill-rule="evenodd" clip-rule="evenodd" d="M9.8478 7.65249L14.6209 1.13077C14.7012 1.02631 14.7501 0.901117 14.762 0.769855C14.7738 0.638594 14.7479 0.506692 14.6874 0.389593C14.6269 0.27283 14.5355 0.17483 14.4233 0.10617C14.3111 0.0375102 14.1823 0.000799332 14.0508 0H2.19531L3.62065 1.42533H12.6254L8.82872 6.63341L9.8478 7.65249ZM9.53717 12.9987L8.11183 11.5734V14.7285H5.73627L5.75148 9.21303L3.47988 6.94142L4.31092 8.07692V15.4412C4.31339 15.6294 4.38926 15.8093 4.52239 15.9423C4.65551 16.0755 4.83535 16.1514 5.0236 16.1538H8.8245C9.01274 16.1514 9.19259 16.0755 9.32571 15.9423C9.45883 15.8093 9.53471 15.6294 9.53717 15.4412V12.9987Z" fill="#B4A048"/>
<line x1="0.353553" y1="0.800255" x2="15.3536" y2="15.8003" stroke="#B4A048"/>
</svg>
