<svg width="15" height="16" viewBox="0 0 15 16" fill="none" xmlns="http://www.w3.org/2000/svg">
<path id="Vector" d="M9.31786 15.8333H5.6821C5.50203 15.831 5.33001 15.7565 5.20267 15.626C5.07533 15.4956 5.00276 15.3193 5.0004 15.1349V7.91667L0.137586 1.10833C0.0607272 1.00594 0.0139244 0.883238 0.00265664 0.754581C-0.00861223 0.625923 0.0161208 0.496639 0.0739596 0.381863C0.131903 0.267417 0.219252 0.171361 0.326577 0.104063C0.433901 0.0367659 0.557125 0.000783472 0.682948 0H14.317C14.4428 0.000783472 14.566 0.0367659 14.6734 0.104063C14.7807 0.171361 14.8681 0.267417 14.926 0.381863C14.9839 0.496639 15.0086 0.625923 14.9973 0.754581C14.986 0.883238 14.9392 1.00594 14.8624 1.10833L9.99955 7.91667V15.1349C9.9972 15.3193 9.92462 15.4956 9.79729 15.626C9.66995 15.7565 9.49792 15.831 9.31786 15.8333ZM6.36381 14.4363H8.63615V7.68383C8.63543 7.53541 8.68345 7.39108 8.77249 7.27403L12.9536 1.39705H2.04635L6.24565 7.27403C6.33468 7.39108 6.38271 7.53541 6.38199 7.68383L6.36381 14.4363Z" fill="#B4A048"/>
</svg>
