<svg width="24" height="16" viewBox="0 0 24 16" fill="none" xmlns="http://www.w3.org/2000/svg">
<g id="email-forward-icon 1" clip-path="url(#clip0_1218_2362)">
<path id="Vector" fill-rule="evenodd" clip-rule="evenodd" d="M24 11.4381L19.5078 16V13.7269C16.668 13.138 14.4297 13.7878 12.7188 15.9588C13.0137 11.4931 16.0508 9.33775 19.5078 9.19446V6.87032L24 11.4303V11.4381ZM1.30469 9.73128e-07H19.5859C19.7563 -0.000209823 19.925 0.033828 20.082 0.100111C20.2418 0.168345 20.3865 0.267757 20.5078 0.392591C20.6307 0.51337 20.7285 0.657456 20.7955 0.816498C20.8626 0.975539 20.8976 1.14637 20.8984 1.3191V5.18219C20.8984 5.21446 20.8857 5.24542 20.863 5.26824C20.8403 5.29107 20.8095 5.30389 20.7773 5.30389C20.7596 5.30357 20.7421 5.29956 20.726 5.29213C20.7099 5.2847 20.6954 5.274 20.6836 5.2607C20.5685 5.13773 20.4371 5.03138 20.293 4.94467C20.1486 4.85918 19.9936 4.79318 19.832 4.74838C19.8071 4.7409 19.7851 4.72566 19.7693 4.70485C19.7535 4.68404 19.7447 4.65873 19.7441 4.63256V1.93547L13.8516 6.97829L14.9238 8.10894C14.9457 8.13195 14.9579 8.16253 14.9579 8.19433C14.9579 8.22614 14.9457 8.25672 14.9238 8.27972L14.8926 8.29935C14.7598 8.37198 14.627 8.44657 14.502 8.52509C14.377 8.60361 14.2441 8.68605 14.1113 8.77242C14.0866 8.78949 14.0564 8.79654 14.0267 8.79217C13.997 8.78781 13.97 8.77234 13.9512 8.74887L12.9746 7.72617L10.9805 9.43394C10.8777 9.52087 10.7476 9.56854 10.6133 9.56854C10.4789 9.56854 10.3489 9.52087 10.2461 9.43394L8.14844 7.72224L1.82617 14.094H10.3379C10.3537 14.0937 10.3694 14.0966 10.3841 14.1025C10.3988 14.1084 10.4121 14.1172 10.4234 14.1283C10.4347 14.1395 10.4436 14.1528 10.4497 14.1674C10.4558 14.1821 10.459 14.1978 10.459 14.2137V14.251C10.4258 14.3963 10.3945 14.5415 10.3672 14.6868C10.3398 14.8301 10.3145 14.9832 10.291 15.1422C10.2864 15.1706 10.2719 15.1965 10.2501 15.2152C10.2283 15.2339 10.2005 15.2442 10.1719 15.2443H1.30469C1.13371 15.2445 0.964394 15.2104 0.806643 15.1442C0.651574 15.0778 0.510412 14.9826 0.390627 14.8635C0.26663 14.7421 0.167728 14.5974 0.0996115 14.4375C0.0335562 14.279 -0.000310234 14.1088 2.1414e-06 13.9369V1.31125C2.1414e-06 1.13943 0.0338564 0.969305 0.0996115 0.810699C0.16909 0.653891 0.267885 0.511952 0.390627 0.392591C0.509732 0.269634 0.65088 0.170401 0.806643 0.100111C0.964394 0.033825 1.13371 -0.000207664 1.30469 9.73128e-07ZM1.15039 13.1518L7.25586 6.99006L1.15039 1.98651V13.1518ZM1.95313 1.15618L10.6035 8.24439L18.8848 1.15618H1.95313Z" fill="#B4A048"/>
</g>
<defs>
<clipPath id="clip0_1218_2362">
<rect width="24" height="16" fill="white"/>
</clipPath>
</defs>
</svg>
