<svg width="19" height="14" viewBox="0 0 19 14" fill="none" xmlns="http://www.w3.org/2000/svg">
<path d="M9.71875 4.03125C9.8125 4.03125 9.90625 4 10 4C11.6562 4 13 5.34375 13 7C13 8.65625 11.6562 10 10 10C8.3125 10 7 8.65625 7 7C7 6.9375 7 6.84375 7 6.75C7.28125 6.90625 7.625 7 8 7C9.09375 7 10 6.125 10 5C10 4.65625 9.875 4.3125 9.71875 4.03125ZM16 2.53125C17.4688 3.875 18.4375 5.5 18.9062 6.625C19 6.875 19 7.15625 18.9062 7.40625C18.4375 8.5 17.4688 10.125 16 11.5C14.5312 12.875 12.5 14 10 14C7.46875 14 5.4375 12.875 3.96875 11.5C2.5 10.125 1.53125 8.5 1.0625 7.40625C0.96875 7.15625 0.96875 6.875 1.0625 6.625C1.53125 5.5 2.5 3.875 3.96875 2.53125C5.4375 1.15625 7.46875 0 10 0C12.5 0 14.5312 1.15625 16 2.53125ZM10 2.5C7.5 2.5 5.5 4.53125 5.5 7C5.5 9.5 7.5 11.5 10 11.5C12.4688 11.5 14.5 9.5 14.5 7C14.5 4.53125 12.4688 2.5 10 2.5Z" fill="#B4A048"/>
</svg>
