<svg width="23" height="13" viewBox="0 0 23 13" fill="none" xmlns="http://www.w3.org/2000/svg">
<path fill-rule="evenodd" clip-rule="evenodd" d="M0.350114 8.24048C0.126726 8.03396 0.000439337 7.75313 -0.000964744 7.45976C-0.00165997 7.3145 0.0283252 7.17053 0.0872788 7.03608C0.146232 6.90163 0.233 6.77932 0.342627 6.67615C0.452254 6.57298 0.582595 6.49095 0.726206 6.43477C0.869817 6.37858 1.02389 6.34932 1.17962 6.34868C1.49413 6.34737 1.79632 6.46265 2.01971 6.66917C3.68182 8.21429 5.30088 9.75243 6.98545 11.2871L6.28167 12.064L6.21616 12.1286C5.99398 12.3358 5.6927 12.4521 5.37856 12.4521C5.06441 12.4521 4.76313 12.3358 4.54095 12.1286L0.350114 8.24048ZM5.61533 7.60323C5.49713 7.50365 5.40166 7.38287 5.33463 7.2481C5.2676 7.11334 5.2304 6.96734 5.22523 6.81886C5.22007 6.67037 5.24705 6.52244 5.30457 6.3839C5.36209 6.24536 5.44897 6.11906 5.56001 6.01255C5.67105 5.90605 5.80397 5.82151 5.95083 5.76401C6.09768 5.70651 6.25547 5.67721 6.41474 5.67788C6.57401 5.67854 6.7315 5.70916 6.8778 5.76789C7.0241 5.82662 7.1562 5.91226 7.26621 6.01969L11.9456 10.2762L20.8963 0.399626C21.9014 -0.709023 23.7039 0.720872 22.7044 1.82778L12.9282 12.6087L12.8721 12.6663C12.6529 12.8763 12.3533 12.9965 12.0391 13.0004C11.725 13.0043 11.422 12.8917 11.1969 12.6873L5.61533 7.60323ZM10.9985 6.8682L10.9404 6.92581L9.24277 5.38069L13.4149 0.771503C14.42 -0.337146 16.2225 1.091 15.2249 2.19965L10.9947 6.8682H10.9985Z" fill="#B4A048"/>
</svg>
