<svg width="15" height="21" viewBox="0 0 15 21" fill="none" xmlns="http://www.w3.org/2000/svg">
<path d="M3.4375 12.375H3.125V10.5H3.4375C3.94531 10.5 4.375 10.9297 4.375 11.4375C4.375 11.9844 3.94531 12.375 3.4375 12.375ZM7.5 10.5H7.8125C8.125 10.5 8.4375 10.8125 8.4375 11.125V13.625C8.4375 13.9766 8.125 14.25 7.8125 14.25H7.5V10.5ZM8.75 0.5V5.5C8.75 6.20312 9.29688 6.75 10 6.75H15V18C15 19.4062 13.8672 20.5 12.5 20.5H2.5C1.09375 20.5 0 19.4062 0 18V3C0 1.63281 1.09375 0.5 2.5 0.5H8.75ZM2.5 9.25C2.14844 9.25 1.875 9.5625 1.875 9.875V14.875C1.875 15.2266 2.14844 15.5 2.5 15.5C2.8125 15.5 3.125 15.2266 3.125 14.875V13.625H3.4375C4.60938 13.625 5.625 12.6484 5.625 11.4375C5.625 10.2656 4.60938 9.25 3.4375 9.25H2.5ZM6.25 14.875C6.25 15.2266 6.52344 15.5 6.875 15.5H7.8125C8.82812 15.5 9.6875 14.6797 9.6875 13.625V11.125C9.6875 10.1094 8.82812 9.25 7.8125 9.25H6.875C6.52344 9.25 6.25 9.5625 6.25 9.875V14.875ZM11.25 9.25C10.8984 9.25 10.625 9.5625 10.625 9.875V14.875C10.625 15.2266 10.8984 15.5 11.25 15.5C11.5625 15.5 11.875 15.2266 11.875 14.875V13H13.125C13.4375 13 13.75 12.7266 13.75 12.375C13.75 12.0625 13.4375 11.75 13.125 11.75H11.875V10.5H13.125C13.4375 10.5 13.75 10.2266 13.75 9.875C13.75 9.5625 13.4375 9.25 13.125 9.25H11.25ZM10 0.5L15 5.5H10V0.5Z" fill="white"/>
</svg>
