<svg width="19" height="17" viewBox="0 0 19 17" fill="none" xmlns="http://www.w3.org/2000/svg">
<path d="M16.7148 0.375C17.9805 0.375 18.9648 1.39453 18.9648 2.625V13.875C18.9648 15.1406 17.9453 16.125 16.7148 16.125H3.21484C1.98438 16.125 0.964844 15.1406 0.964844 13.875V2.625C0.964844 1.39453 1.98438 0.375 3.21484 0.375H16.7148ZM4.90234 2.625C3.98828 2.625 3.21484 3.39844 3.21484 4.3125C3.21484 5.26172 3.91797 6 4.90234 6C5.85156 6 6.58984 5.26172 6.58984 4.3125C6.58984 3.39844 5.81641 2.625 4.90234 2.625ZM16.6797 13.5938C16.75 13.418 16.75 13.1719 16.6445 13.0312L12.1445 6.28125C12.0391 6.10547 11.8633 6 11.6875 6C11.4766 6 11.3008 6.10547 11.1953 6.28125L7.92578 11.2031L6.76562 9.62109C6.66016 9.48047 6.51953 9.375 6.34375 9.375C6.13281 9.375 5.99219 9.48047 5.88672 9.62109L3.42578 12.9961C3.28516 13.1719 3.28516 13.3828 3.35547 13.5938C3.46094 13.7695 3.63672 13.875 3.88281 13.875H16.1875C16.3633 13.875 16.5742 13.7695 16.6797 13.5938Z" fill="white"/>
</svg>
